<?xml version="1.0" encoding="utf-8"?>
<!-- Generator: Adobe Illustrator 17.1.0, SVG Export Plug-In . SVG Version: 6.00 Build 0)  -->
<!DOCTYPE svg PUBLIC "-//W3C//DTD SVG 1.1//EN" "http://www.w3.org/Graphics/SVG/1.1/DTD/svg11.dtd">
<svg version="1.1" id="Layer_1" xmlns="http://www.w3.org/2000/svg" xmlns:xlink="http://www.w3.org/1999/xlink" x="0px" y="0px"
	 viewBox="0 0 20.142 21.073" enable-background="new 0 0 20.142 21.073" xml:space="preserve">
<g>
	<circle fill="#FFFFFF" cx="9.931" cy="10.271" r="2.84"/>
	<path fill="#7A7A7A" d="M19.979,11.348l-0.003-2.273l-0.321-0.104L17.22,8.179l-0.651-1.568l1.245-2.642l-1.508-1.504l-0.102-0.102
		l-0.302,0.152l-2.28,1.163l-1.569-0.649l-0.989-2.75L8.793,0.284L8.688,0.607L7.896,3.042L6.33,3.692L3.686,2.448L2.081,4.056
		l0.153,0.3l1.162,2.282L2.749,8.206l-2.75,0.989l0.003,2.274l0.321,0.105l2.435,0.791l0.651,1.566l-1.244,2.643l0.034,0.034
		l1.574,1.572l0.302-0.154l2.281-1.162l1.568,0.648l0.989,2.748l2.274-0.003l0.104-0.32l0.792-2.434l1.567-0.651l2.642,1.245
		l1.606-1.61l-0.154-0.301l-1.162-2.281l0.648-1.568L19.979,11.348z M9.992,13.02c-1.519,0.002-2.751-1.228-2.753-2.746
		s1.228-2.751,2.746-2.753s2.751,1.228,2.753,2.746C12.74,11.786,11.511,13.018,9.992,13.02z"/>
	<path fill="#A0A1A2" d="M7.212,10.267C7.21,8.754,8.435,7.526,9.948,7.525c0.376,0,0.734,0.075,1.061,0.212l5.236-5.248
		l-0.101-0.101l-0.301,0.152l-2.271,1.158l-1.563-0.646l-0.985-2.739L8.759,0.315L8.655,0.636L7.866,3.062L6.306,3.71L3.672,2.47
		L2.073,4.073l0.153,0.299l1.157,2.273L2.739,8.207l-2.74,0.985l0.003,2.265l0.32,0.105l2.426,0.788l0.648,1.56l-1.24,2.633
		l0.034,0.034l5.237-5.249C7.289,11.001,7.212,10.643,7.212,10.267z"/>
</g>
</svg>
