<?xml version="1.0" encoding="utf-8"?>
<!-- Generator: Adobe Illustrator 17.1.0, SVG Export Plug-In . SVG Version: 6.00 Build 0)  -->
<!DOCTYPE svg PUBLIC "-//W3C//DTD SVG 1.1//EN" "http://www.w3.org/Graphics/SVG/1.1/DTD/svg11.dtd">
<svg version="1.1" id="Layer_1" xmlns="http://www.w3.org/2000/svg" xmlns:xlink="http://www.w3.org/1999/xlink" x="0px" y="0px"
	 viewBox="0 0 21.344 17.93" enable-background="new 0 0 21.344 17.93" xml:space="preserve">
<g>
	<path fill="#A0A1A2" d="M0,17.094c0,0.42,0.294,0.798,0.798,0.798h19.404c0.42,0,0.798-0.294,0.798-0.798V3.192H0V17.094z"/>
	<path fill="#59B4D9" d="M20.202,0H0.798C0.294,0,0,0.378,0,0.798v2.394h21V0.798C21,0.378,20.706,0,20.202,0"/>
	<rect x="7.896" y="4.578" fill="#FFFFFF" width="5.292" height="3.192"/>
	<rect x="7.896" y="8.904" fill="#FFFFFF" width="5.292" height="3.192"/>
	<rect x="14.196" y="8.904" fill="#FFFFFF" width="5.292" height="3.192"/>
	<rect x="14.196" y="4.578" fill="#FFFFFF" width="5.292" height="3.192"/>
	<rect x="1.596" y="4.578" fill="#FFFFFF" width="5.292" height="3.192"/>
	<rect x="1.596" y="8.904" fill="#FFFFFF" width="5.292" height="3.192"/>
	<rect x="1.596" y="13.188" fill="#FFFFFF" width="5.292" height="3.192"/>
	<rect x="7.896" y="13.188" fill="#FFFFFF" width="5.292" height="3.192"/>
	<rect x="14.196" y="13.188" fill="#FFFFFF" width="5.292" height="3.192"/>
	<path opacity="0.2" fill="#FFFFFF" enable-background="new    " d="M0.798,0C0.42,0,0,0.378,0,0.798v3.108v1.386v11.802
		c0,0.42,0.42,0.798,0.798,0.798H1.68L18.312,0H0.798z"/>
</g>
</svg>
